<svg width="100" height="100" viewBox="0 0 100 100" fill="none" xmlns="http://www.w3.org/2000/svg">
<g clip-path="url(#clip0_635_7668)">
<rect width="100" height="100" rx="18.75" fill="#2F2F2F"/>
<g clip-path="url(#clip1_635_7668)">
<path d="M75.5538 58.5252L76.4941 58.7929L77.4842 58.8652L78.184 57.9281L79.0965 57.7847L80.029 57.5337L80.7572 56.8317L81.5245 56.1787L82.4875 55.6538L82.5409 54.4696L83.005 53.61L83.9197 52.8695L83.8551 51.7926L83.6432 50.7738L84.0882 49.7673L83.366 48.8543L83.7232 47.7398L83.0988 46.8956L82.5822 46.0421L82.105 45.1594L81.6377 44.2669L80.9148 43.5203L80.8406 42.4042L80.1865 41.6089L79.7585 40.697L79.3305 39.7851L79.0988 38.7859L78.4252 37.9905L78.1347 37.0204L77.5888 36.157L76.7187 35.4392L76.9585 34.2361L76.4519 33.3631L75.8176 32.5385L75.586 31.549L75.1874 30.6275L74.7691 29.7156L74.7142 28.6681L73.9228 27.8918L73.8679 26.8443L73.489 25.913L73.0314 25.0206L72.8194 24.0312L72.7251 23.0226L72.2579 22.091L71.3484 21.4416L70.8809 20.5883L70.6695 19.4325L69.5133 19.1932L68.7902 18.5151L68.1169 17.6121L67.1179 17.2951L66.0591 17.2325L65.0393 17.2384L64.0301 16.9997L63.0674 17.4758L61.9893 17.3151L61.1145 17.8894L60.0645 18.091L59.4141 18.9499L58.7738 19.7208L57.8599 20.2361L57.65 21.3121L56.6378 21.9054L56.4672 22.9325L55.9049 23.8505L56.2146 24.9283L56.1618 25.9265L56.0599 26.9539L56.5075 27.8952L56.6606 28.9138L56.9217 29.8838L57.0944 30.9024L57.4929 31.8436L58.3628 32.6103L58.1918 33.7549L58.826 34.6088L59.1067 35.5887L59.3089 36.5976L60.169 37.3545L60.6363 38.2568L60.6813 39.3337L61.3843 40.1389L61.6945 41.1091L61.7983 42.1764L62.4523 42.9913L62.9098 43.8935L63.2691 44.8443L63.5497 45.8339L63.7223 46.8917L64.5531 47.6191L65.099 48.4728L65.527 49.4042L65.8174 50.4037L66.609 51.131L66.8011 52.1888L67.4846 52.9744L68.0502 53.8281L68.1833 54.9445L68.8173 55.8474L69.6087 56.6138L70.6859 56.9898L71.3196 57.9808L72.3576 58.3566L73.4356 58.5564L74.4638 58.9126L75.5538 58.5252Z" fill="#EAB0A5"/>
<path d="M67.5934 52.6401L68.5548 52.5361L69.4969 52.334L70.3711 51.9458L71.1965 51.479L71.7977 50.6787L72.5744 50.1236L73.8397 50.0305L74.1967 48.9747L74.8272 48.1842L75.0076 47.1669L75.8145 46.3967L76.1418 45.4093L76.332 44.3724L75.6787 43.3716L75.9572 42.3253L75.3918 41.4325L75.3173 40.3849L75.0171 39.3658L73.8912 38.8819L73.5615 37.9019L73.2612 36.9121L72.6366 36.1072L72.1791 35.205L72.0556 34.1376L71.0479 33.5269L70.6199 32.6053L70.7223 31.4408L70.0094 30.6649L69.2965 29.8792L69.3006 28.7731L68.3422 28.0942L68.5231 26.9203L67.8789 26.1054L67.4607 25.1838L67.1308 24.2429L66.8207 23.2825L66.2158 22.4384L66.318 21.3328L65.7918 20.4596L65.4914 19.4993L65.2008 18.5487L65.1065 17.5206L64.5606 16.6572L64.3487 15.6483L63.7635 14.7945L62.7948 14.2525L62.662 13.0383L61.8111 12.438L60.8319 12.082L60.0203 11.4525L59.0704 11.1162L58.0808 10.9167L57.1019 10.4628L56.0804 10.919L55.0514 10.7292L54.0698 11.0192L53.1658 11.4954L52.2133 11.854L51.2411 12.2419L50.5322 13.0125L50.2438 14.0881L49.6134 14.8395L48.6011 15.4426L48.7929 16.5983L48.4071 17.5169L47.7956 18.4641L47.8505 19.5116L48.1703 20.5112L48.5492 21.4621L48.6238 22.4999L49.2874 23.354L49.2245 24.4402L49.7899 25.3233L49.8448 26.3806L50.5281 27.2152L51.0347 28.1078L51.0895 29.1847L51.8809 29.9609L51.6902 31.1348L52.2655 31.9983L52.3694 33.0558L53.1706 33.8223L53.5397 34.7731L53.7517 35.7821L54.3663 36.6164L54.647 37.606L55.0357 38.5472L55.3262 39.5368L55.8426 40.4197L56.8011 41.0791L56.7674 42.234L57.5098 43.0002L57.9083 43.9414L58.2478 44.9215L59.2064 45.5515L59.7917 46.3857L60.0034 47.4534L60.8147 48.1514L61.3213 49.044L61.7883 50.0344L62.7573 50.5078L63.6476 51.0397L64.5478 51.5618L65.4873 52.0548L66.4955 52.5577L67.5934 52.6401Z" fill="#F3C6BD"/>
<path d="M46.4457 83.2177L47.4833 83.7306L48.4849 83.333L49.4478 82.8276L50.5154 83.1644L51.5259 83.0311L52.4785 82.6432L53.4891 82.4806L54.335 81.7888L55.2776 81.4693L56.3369 81.4145L57.2796 81.0461L58.2614 80.7267L59.0679 80.0837L60.1666 79.9508L60.6514 78.8172L61.7113 78.5765L62.4787 77.9039L63.0312 76.9859L63.8571 76.4017L64.7709 75.9255L65.3916 75.1252L66.0026 74.3249L67.0143 73.8686L67.5373 72.9896L68.1091 72.1598L68.7005 71.3495L69.3311 70.5493L69.2669 69.3647L70.1323 68.6827L70.0777 67.5569L70.4831 66.6579L71.104 65.8282L71.4605 64.8899L71.5232 63.8721L71.8111 62.9238L72.589 62.0555L72.7496 61.0577L72.8221 60.04L72.8651 59.032L72.7904 58.0138L72.6962 56.9856L72.2881 55.9759L72.2527 54.9676L72.992 53.923L72.4858 52.9325L72.4798 51.9146L72.052 50.9439L72.3894 49.8685L72.2952 48.8404L72.1519 47.8219L71.2823 46.9964L71.404 45.9104L70.7797 45.0467L70.7346 43.9796L70.5521 42.9512L69.4857 42.3109L69.2246 41.3214L68.9342 40.3219L68.2703 39.5363L67.7244 38.6827L67.4243 37.6343L66.2981 37.2385L65.6341 36.4824L65.3541 35.3361L64.385 34.8822L63.3961 34.487L62.8604 33.516L61.6839 33.4528L61.1387 32.3937L60.1198 32.1549L59.1897 31.7501L58.2696 31.316L57.3396 30.9112L56.3004 30.8486L55.45 30.1211L54.4107 30.0879L53.4211 29.859L52.4216 29.6693L51.4227 29.323L50.3827 29.4953L49.3733 29.3251L48.3725 29.478L48.0176 29.9857L47.0594 29.2284L46.049 29.3421L45.0476 29.6515L44.0379 29.5695L43.0372 29.7223L42.0557 29.9536L40.9971 29.842L40.1315 30.5435L39.0823 30.5395L38.1395 30.9178L37.2454 31.4136L36.2833 31.7134L35.2723 31.9642L34.4366 32.5581L33.8446 33.5151L32.9701 33.9915L31.793 34.1046L31.3869 35.1993L30.5415 35.7541L29.4811 36.1221L28.8309 36.9125L28.3275 37.8111L27.824 38.6999L27.0468 39.3822L26.8173 40.4385L25.9519 41.1008L25.703 42.1081L25.0039 42.8983L24.941 43.965L24.7412 44.9626L24.1104 45.8119L24.2731 46.899L23.4364 47.7376L23.4424 48.7654L22.9584 49.713L23.2976 50.7812L23.284 51.7796L23.2115 52.8168L23.6984 53.7387L23.93 54.7282L24.3874 55.65L24.8644 56.5817L25.6266 57.2991L26.7535 57.5186L27.2988 58.5288L28.3376 58.7187L29.2676 59.1333L30.2271 59.5284L31.2779 59.1016L32.2393 58.9976L33.2681 59.2168L34.1331 58.6425L35.0756 58.3622L36.1059 58.1702L36.7659 57.3701L37.4549 56.6679L38.1635 55.9756L38.8528 55.2245L39.5911 54.4442L39.5364 53.3379L39.6578 52.3498L39.9165 51.3328L40.4298 50.4244L40.5418 49.3383L41.3876 48.6563L41.9205 47.7578L42.7075 47.0755L43.8158 47.0112L44.7387 46.7112L45.6907 46.4994L46.7023 46.0823L47.8573 46.625L49.0345 46.5021L49.3881 46.337L50.3384 46.5755L51.2694 46.716L52.3286 46.6906L53.0614 47.3981L53.9617 47.8811L54.0456 49.0364L54.9357 49.6368L55.0987 50.6358L55.8704 51.4413L55.896 52.4496L55.8726 53.4577L56.0749 54.4275L56.2184 55.4069L56.3813 56.4059L56.2991 57.404L56.2366 58.4021L55.9388 59.37L55.0829 60.1205L55.3825 61.2864L54.6248 61.9981L54.2389 62.9168L53.3837 63.4813L52.6753 64.1149L51.9858 64.9345L51.2083 65.7049L50.119 65.9259L49.0498 66.01L48.0585 66.2608L47.0474 66.5409L45.9772 66.8991L45.6941 66.5652L44.6835 66.7376L43.6737 66.6751L42.7598 67.1807L41.7493 67.3139L40.7286 67.5646L39.9026 68.1782L39.1156 68.8408L38.485 69.6509L38.2751 70.717L37.1944 71.2807L36.8377 72.2582L36.8827 73.335L36.4476 74.3024L36.4535 75.34L37.0089 76.3013L37.2406 77.2614L37.6099 78.1731L38.0479 79.0459L38.2793 80.0941L39.1105 80.7139L40.0305 81.1774L40.734 81.8554L41.6939 82.133L42.4163 82.9971L43.4058 83.2553L44.4252 83.3472L44.9545 83.4079L46.4457 83.2177Z" fill="#FAD5CD"/>
<path d="M61.9889 51.4061L62.9222 50.9496L63.9602 51.3156L64.7379 50.5257L65.7773 50.5198L66.4275 49.7294L67.2724 49.2823L68.0104 48.6096L68.4941 47.7403L69.2811 47.0678L69.9314 46.2481L69.7689 45.1218L70.1841 44.2131L70.4624 43.2255L70.6232 42.1886L69.9696 41.266L69.6593 40.335L69.4178 39.3748L69.2452 38.3073L68.5027 37.5802L67.524 37.0871L67.2927 35.9998L66.8352 35.0878L66.1515 34.3609L65.635 33.4976L64.5679 33.0433L64.2677 32.0242L63.6529 31.2389L63.3723 30.2101L62.1579 29.8238L62.1722 28.6199L61.1544 28.0777L61.0704 26.942L60.1214 26.361L59.7719 25.4004L59.1277 24.6149L58.5719 23.7809L58.4189 22.7232L58.0891 21.7627L57.2188 21.1134L56.4959 20.3766L56.6181 19.1731L56.0426 18.3585L55.2117 17.6703L55.0096 16.6515L54.7092 15.6912L54.3694 14.76L53.3912 14.1299L53.4542 13.0143L52.9477 12.1021L51.9397 11.5796L51.4134 10.7162L50.444 10.3309L49.7702 9.58446L49.1069 8.64231L48.0186 8.60888L46.9589 8.7811L46.0197 8.20988L45 8.16691L44.0183 8.47646L43.0175 8.63912L42.2498 9.39973L41.395 9.84679L40.4035 10.1465L39.6264 10.7896L38.859 11.4719L38.4436 12.4198L37.5878 13.1312L37.8873 14.3167L37.2761 15.1953L37.2331 16.2033L37.6217 17.1836L37.6376 18.1625L37.6142 19.1902L38.0913 20.0827L38.598 20.9459L38.6135 22.052L39.179 22.9057L39.6562 23.7885L40.0843 24.7004L40.4435 25.6512L41.4808 26.2325L41.5551 27.3389L42.4942 27.959L42.9615 28.8515L43.2028 29.8704L43.6604 30.7628L44.3636 31.5191L44.8309 32.4116L44.8364 33.5764L45.3823 34.4398L45.9577 35.2642L46.5332 36.0885L47.1873 36.8643L47.8316 37.6399L48.7314 38.26L49.2971 39.0843L49.2139 40.3662L50.1432 40.9472L50.6499 41.83L51.481 42.4694L51.6827 43.5762L52.209 44.4493L52.7647 45.303L53.8909 45.7085L54.1811 46.7667L55.0811 47.3476L55.4794 48.3376L56.0447 49.2794L57.2994 49.4016L58.0419 50.1189L58.8926 50.7681L59.9314 50.9482L60.9504 51.1673L61.9889 51.4061Z" fill="#FAD5CD"/>
</g>
<path fill-rule="evenodd" clip-rule="evenodd" d="M124.522 77.1517L124.151 77.1072L123.151 77.0545L122.141 77.0703L121.131 77.1938L120.132 76.7202L119.122 76.8045L118.121 76.928L117.113 76.6404L116.103 76.5289L115.101 76.8971L114.091 76.9815L113.092 76.5764L112.09 77.2676L111.081 76.8234L110.08 77.0154L109.081 76.8746L108.071 76.8317L107.072 76.505L106.062 76.4914L105.06 76.9183L104.05 76.8265L103.05 76.9989L102.049 76.956L101.051 76.4727L100.049 76.8898L99.0478 77.2286L98.0398 76.6963L97.0307 76.4478L96.0293 76.7867L95.02 76.5872L94.0178 77.112L93.0176 77.1278L92.0096 76.5759L91.0072 77.1692L89.9976 77.048L88.9981 76.8779L87.9892 76.5804L86.9776 76.9878L85.977 77.1015L84.9794 76.4028L83.9684 76.6829L82.9666 77.1098L81.9573 76.9103L80.9586 76.5052L79.9583 76.5406L78.9477 76.6935L77.9483 76.4842L76.9364 76.9698L75.9383 76.4277L74.9262 76.9916L73.9285 76.3125L72.9155 77.0918L71.9166 76.7455L70.9162 76.7907L69.9075 76.4443L68.9051 77.0376L67.9053 76.936L66.9047 77.0302L65.8955 76.8306L64.8971 76.3375L63.8953 76.7644L62.8944 76.9369L61.974 76.6006L61.7519 75.6699L61.7557 74.6422L62.2988 73.636L62.0869 72.6271L62.2377 71.6194L61.9571 70.6102L61.7354 69.6012L62.1216 68.5945L62.1449 67.5864L62.1095 66.578L62.0936 65.5698L61.6561 64.5698L61.6403 63.5615L61.9382 62.5642L61.6282 61.5549L61.6025 60.5466L62.2829 59.541L61.8356 58.5311L61.7511 57.5226L61.7646 56.5243L61.7194 55.5159L61.9683 54.5087L62.1878 53.5013L61.9072 52.5019L62.0776 51.4943L61.8951 50.4953L62.2126 49.4883L61.8535 48.4885L61.6808 47.4797L61.6649 46.4714L61.9531 45.4643L62.2314 44.467L62.0096 43.458L61.8172 42.4589L61.87 41.4607L62.1875 40.4635L62.005 39.4546L62.3421 38.4575L61.63 37.4466L62.2515 36.4505L62.274 35.6774L63.0582 35.7586L64.0778 35.8113L65.0884 35.6683L66.0987 35.584L67.1091 35.4703L68.1185 35.6503L69.1278 35.84L70.1397 35.3348L71.1488 35.5637L72.1607 35.0683L73.1683 35.7083L74.1695 35.4576L75.1787 35.6669L76.1804 35.2595L77.1907 35.2046L78.2001 35.3649L79.2106 35.2219L80.2112 35.118L81.2194 35.6112L82.2309 35.2038L83.2411 35.1587L84.2413 35.1624L85.2495 35.636L86.2597 35.5908L87.2606 35.389L88.2693 35.755L89.2708 35.4161L90.2799 35.6352L91.2897 35.6977L92.2903 35.6036L93.3018 35.1963L94.3107 35.5035L95.3102 35.6834L96.3101 35.7655L97.3104 35.7398L98.3214 35.4793L99.3203 35.8159L100.32 35.9175L101.331 35.5983L102.34 35.9642L103.341 35.8798L104.352 35.3648L105.352 35.5448L106.352 35.6366L107.353 35.3467L108.351 35.8986L109.354 35.3444L110.364 35.2699L111.363 35.44L112.373 35.5025L113.373 35.6628L114.384 35.4513L115.383 35.6704L116.393 35.7133L117.395 35.2766L118.394 35.5837L119.404 35.382L120.412 35.9926L121.414 35.5461L122.423 35.8827L123.424 35.72L124.425 35.3714L124.678 35.4484L124.522 77.1517Z" fill="#FAD5CD"/>
<path d="M64.6489 76.5116L65.0017 75.8888L65.5532 75.4211L66.2897 75.0853L66.5801 74.4255L67.2257 73.973L67.2218 73.2505" stroke="#C07A73" stroke-width="2.4" stroke-miterlimit="10"/>
<g clip-path="url(#clip2_635_7668)">
<path d="M49.5796 57.1244L49.1649 56.4607L48.5838 55.9313L48.0492 55.3871L47.4387 54.9065L46.8659 54.3222L46.1435 53.9233L45.2069 54.2079L44.478 53.7783L43.6574 54.1147L42.8679 54.1729L41.9844 53.9905L41.1419 54.1939L40.6919 55.1061L39.9725 55.5187L39.0783 55.6549L38.4515 56.2157L37.6672 56.5169L37.0234 57.0439L36.2663 57.3991L35.4408 57.6363L34.7694 58.1264L34.1702 58.7241L33.4199 59.0929L32.656 59.4346L31.9294 59.8507L31.2169 60.2768L30.5251 60.7262L29.7269 61.0175L29.0966 61.5715L28.3943 62.0178L27.7365 62.5349L27.1713 63.2002L26.4655 63.6397L25.6261 63.867L24.7696 64.0605L24.1394 64.6145L23.6048 65.3407L22.8341 65.6689L22.0082 65.9233L21.2753 66.3087L20.7648 67.065L20.0111 67.4271L19.2747 67.8058L18.3598 67.9186L17.9282 68.7962L17.0374 68.9392L16.4136 69.5239L15.5538 69.7106L14.7864 70.0456L14.3579 70.9471L13.5045 71.1645L12.73 71.5031L12.1198 72.1148L11.5531 72.6876L10.9765 73.3841L11.0745 74.241L10.83 75.1684L11.3603 75.9011L11.6885 76.6253L11.9603 77.488L12.6827 78.0478L13.5348 78.3646L14.4074 78.4001L15.166 78.1373L16.0806 78.2025L16.6965 77.4948L17.6046 77.5293L18.2167 76.832L19.1747 77.0194L19.76 76.2508L20.7187 76.4039L21.4619 76.0387L22.242 75.765L23.0425 75.5319L23.746 75.0342L24.3649 74.3504L25.3135 74.4832L25.929 73.7926L26.7261 73.5527L27.5369 73.3398L28.1962 72.7542L29.0167 72.5788L29.7904 72.2744L30.7054 72.3225L31.3749 71.7572L32.0444 71.1919L32.9125 71.1111L33.7331 70.9357L34.4128 70.3907L35.1529 70.0016L35.9768 69.8329L36.6902 69.3726L37.4469 69.0345L38.2712 68.8486L39.1121 68.7137L39.7983 68.1994L40.569 67.8711L41.4707 67.8751L42.2142 67.4927L43.0249 67.2799L43.6038 66.4807L44.492 66.4576L45.2831 66.1699L45.9764 65.6519L46.8691 65.5841L47.3826 64.8517L48.2897 64.6158L48.5088 63.7095L48.9459 63.0578L49.8335 62.5862L49.7574 61.7013L50.2705 60.986L49.9659 60.1653L49.9937 59.3975L49.7971 58.6665L50.0691 57.7759L49.2999 57.2481L49.5796 57.1244Z" fill="#959595"/>
</g>
<path d="M76.6828 34.853L76.1359 35.1523L75.5743 35.1784L75.0207 35.311L74.4452 35.1487L73.8774 35.1129L73.3253 35.4352L72.7594 35.4442L72.1854 35.097L71.6279 35.3898L71.0571 35.3494L70.492 35.2659L69.9281 35.3197L69.3696 35.1532L68.8045 35.1946L68.2255 35.4221L67.6762 35.1973L67.0725 35.3025L66.6348 34.8692" stroke="#C07A73" stroke-width="2" stroke-miterlimit="10"/>
</g>
<defs>
<clipPath id="clip0_635_7668">
<rect width="100" height="100" rx="18.75" fill="white"/>
</clipPath>
<clipPath id="clip1_635_7668">
<rect width="146.665" height="89.9987" fill="white" transform="matrix(-0.999993 -0.00373867 -0.00373867 0.999993 147 8.54834)"/>
</clipPath>
<clipPath id="clip2_635_7668">
<rect width="12.7491" height="42.9023" fill="white" transform="matrix(-0.449222 -0.89342 -0.89342 0.449222 52.5571 62.7241)"/>
</clipPath>
</defs>
</svg>
